Coordinates
version=1
nRows=13
nColumns=22
inDegrees=yes

Units are S.I. units (second, meters, Newtons, ...)
If the header above contains a line with 'inDegrees', this indicates whether rotational values are in degrees (yes) or radians (no).

endheader
time	pelvis_tilt	pelvis_list	pelvis_rotation	pelvis_tx	pelvis_ty	pelvis_tz	hip_flexion_r	hip_adduction_r	hip_rotation_r	knee_angle_r	ankle_angle_r	subtalar_angle_r	hip_flexion_l	hip_adduction_l	hip_rotation_l	knee_angle_l	ankle_angle_l	subtalar_angle_l	lumbar_extension	lumbar_bending	lumbar_rotation
      0.01000000	     -2.60591782	      0.26834652	     -6.60251978	     -1.06351768	      0.88942135	      0.64550091	    -15.20351006	     -0.17605590	    -11.26904303	    -15.82964757	     20.86744242	      5.17415310	     36.45458296	     -0.24628092	     -4.57070290	    -38.85949824	      4.75620126	     -7.29875816	     -9.04279233	     -5.74418631	      6.24959404
      0.02000000	     -2.51893105	      0.52714699	     -6.69882177	     -1.05599088	      0.89031982	      0.64484270	    -15.19521949	     -0.68810626	    -11.04225849	    -16.75964564	     19.97117805	      5.22782699	     35.96332259	      0.07360177	     -4.74535032	    -39.05397417	      5.15322323	     -7.21980318	     -8.84795553	     -6.12108976	      6.42559862
      0.03000000	     -2.43821273	      0.80827926	     -6.78187518	     -1.04719636	      0.89147995	      0.64401713	    -15.09349552	     -1.25938818	    -10.78834360	    -17.95204708	     18.80063359	      5.28396237	     35.36625278	      0.44724947	     -4.92760829	    -39.20061119	      5.63953521	     -7.14703564	     -8.59463210	     -6.52184023	      6.57239097
      0.04000000	     -2.32813975	      1.08783050	     -6.87063506	     -1.03752657	      0.89296339	      0.64306095	    -14.89054489	     -1.87905587	    -10.55483557	    -19.43823020	     17.37842027	      5.41727439	     34.61846024	      0.85609646	     -5.08337097	    -39.24811755	      6.16470600	     -7.10219088	     -8.34529926	     -6.92185851	      6.76674954
      0.05000000	     -2.25401226	      1.34539051	     -6.93631666	     -1.02732166	      0.89463892	      0.64199872	    -14.51212310	     -2.49141107	    -10.31721853	    -21.18667396	     15.68037422	      5.50104030	     33.81624583	      1.26799327	     -5.21962883	    -39.19793617	      6.72048659	     -7.07994789	     -8.03816038	     -7.28266730	      6.90736638
      0.06000000	     -2.19012115	      1.57604095	     -6.98086467	     -1.01686491	      0.89651402	      0.64085069	    -13.96459661	     -3.09587400	    -10.11181717	    -23.19561090	     13.71707967	      5.59310874	     32.93841976	      1.67759483	     -5.33295475	    -39.02769320	      7.27703990	     -7.08712917	     -7.71834351	     -7.59883065	      7.00473879
      0.07000000	     -2.13738787	      1.77140132	     -6.99781637	     -1.00637460	      0.89853515	      0.63963499	    -13.24022805	     -3.67865448	     -9.94859532	    -25.44890907	     11.50054198	      5.67966877	     32.00495601	      2.07383199	     -5.41396312	    -38.74417504	      7.81800479	     -7.11996192	     -7.40239080	     -7.86021287	      7.04184482
      0.08000000	     -2.08895442	      1.93711089	     -6.99180520	     -0.99600073	      0.90064686	      0.63835795	    -12.34133442	     -4.24772688	     -9.82148225	    -27.92766364	      9.05272645	      5.74241417	     31.02900707	      2.45728585	     -5.46898089	    -38.36279990	      8.33076349	     -7.17495677	     -7.10946342	     -8.07273641	      7.01544471
      0.09000000	     -2.03563827	      2.07342639	     -6.96184585	     -0.98583149	      0.90279754	      0.63703594	    -11.28520040	     -4.80019616	     -9.72305390	    -30.59675945	      6.41985801	      5.72675056	     30.02040083	      2.82604320	     -5.49330849	    -37.90795249	      8.81440968	     -7.23990617	     -6.86016928	     -8.23816341	      6.91554269
      0.10000000	     -1.96664350	      2.18777379	     -6.91147969	     -0.97591355	      0.90494280	      0.63568982	    -10.09110104	     -5.34211978	     -9.63417705	    -33.42501867	      3.65165014	      5.60409727	     28.98437046	      3.18193108	     -5.49686653	    -37.40118516	      9.26179616	     -7.30602172	     -6.67470825	     -8.36994345	      6.73208280
      0.11000000	     -1.87300356	      2.28266268	     -6.84659091	     -0.96626844	      0.90703610	      0.63434022	     -8.77712521	     -5.87823532	     -9.55065079	    -36.38510248	      0.81176857	      5.39786919	     27.92870144	      3.52633748	     -5.47198900	    -36.87093548	      9.68217867	     -7.37251322	     -6.56846955	     -8.47582293	      6.47991790
      0.12000000	     -1.77553891	      2.37721022	     -6.77581646	     -0.95690168	      0.90899514	      0.63299255	     -7.32429754	     -6.41766598	     -9.42399412	    -39.45393084	     -2.00286396	      5.18177100	     26.88528566	      3.87413877	     -5.42670582	    -36.32978046	     10.09339429	     -7.48355824	     -6.51289968	     -8.57350610	      6.15619848
      0.13000000	     -1.64618041	      2.45824096	     -6.68816639	     -0.94779973	      0.91083120	      0.63165175	     -5.78882255	     -6.94279025	     -9.26996917	    -42.58091363	     -4.73541398	      4.97532274	     25.83653968	      4.21513914	     -5.35603474	    -35.80611521	     10.48971673	     -7.60005291	     -6.54798174	     -8.65339977	      5.76984438
